<mxfile host="app.diagrams.net" agent="Mozilla/5.0 (Windows NT 10.0; Win64; x64) AppleWebKit/537.36 (KHTML, like Gecko) Chrome/128.0.0.0 Safari/537.36" version="24.7.7">
  <diagram name="Página-1" id="Wn4L8KQbp4seyyf3rzJV">
    <mxGraphModel grid="1" page="1" gridSize="10" guides="1" tooltips="1" connect="1" arrows="1" fold="1" pageScale="1" pageWidth="827" pageHeight="1169" math="0" shadow="0">
      <root>
        <mxCell id="0" />
        <mxCell id="1" parent="0" />
        <mxCell id="nCXarIT7lEDPo6yAbSy_-1" value="Sistema de Estacionamento" style="swimlane;whiteSpace=wrap;html=1;" vertex="1" parent="1">
          <mxGeometry x="171" y="-10" width="470" height="490" as="geometry" />
        </mxCell>
        <mxCell id="nCXarIT7lEDPo6yAbSy_-4" value="Estacionar o Carro" style="ellipse;whiteSpace=wrap;html=1;" vertex="1" parent="nCXarIT7lEDPo6yAbSy_-1">
          <mxGeometry x="40" y="350" width="100" height="40" as="geometry" />
        </mxCell>
        <mxCell id="nCXarIT7lEDPo6yAbSy_-5" value="Sinalizar vagas disponiveis" style="ellipse;whiteSpace=wrap;html=1;" vertex="1" parent="nCXarIT7lEDPo6yAbSy_-1">
          <mxGeometry x="235" y="130" width="112" height="40" as="geometry" />
        </mxCell>
        <mxCell id="nCXarIT7lEDPo6yAbSy_-8" value="Marcar a vaga como ocupada" style="ellipse;whiteSpace=wrap;html=1;" vertex="1" parent="nCXarIT7lEDPo6yAbSy_-1">
          <mxGeometry x="180" y="410" width="90" height="50" as="geometry" />
        </mxCell>
        <mxCell id="nCXarIT7lEDPo6yAbSy_-13" value="Include" style="html=1;verticalAlign=bottom;endArrow=open;dashed=1;endSize=8;curved=0;rounded=0;exitX=0;exitY=0;exitDx=0;exitDy=0;" edge="1" parent="nCXarIT7lEDPo6yAbSy_-1" source="nCXarIT7lEDPo6yAbSy_-8" target="nCXarIT7lEDPo6yAbSy_-4">
          <mxGeometry relative="1" as="geometry">
            <mxPoint x="90" y="250" as="sourcePoint" />
            <mxPoint x="206" y="280" as="targetPoint" />
          </mxGeometry>
        </mxCell>
        <mxCell id="nCXarIT7lEDPo6yAbSy_-14" value="Marcar vaga como disponível" style="ellipse;whiteSpace=wrap;html=1;" vertex="1" parent="nCXarIT7lEDPo6yAbSy_-1">
          <mxGeometry x="133" y="280" width="121" height="55" as="geometry" />
        </mxCell>
        <mxCell id="nCXarIT7lEDPo6yAbSy_-18" value="Sinalizar a direção da vaga Disponível" style="ellipse;whiteSpace=wrap;html=1;" vertex="1" parent="nCXarIT7lEDPo6yAbSy_-1">
          <mxGeometry x="204" y="200" width="100" height="60" as="geometry" />
        </mxCell>
        <mxCell id="nCXarIT7lEDPo6yAbSy_-25" value="" style="endArrow=none;html=1;rounded=0;entryX=0;entryY=1;entryDx=0;entryDy=0;exitX=0.5;exitY=0;exitDx=0;exitDy=0;" edge="1" parent="nCXarIT7lEDPo6yAbSy_-1" source="nCXarIT7lEDPo6yAbSy_-4" target="nCXarIT7lEDPo6yAbSy_-14">
          <mxGeometry width="50" height="50" relative="1" as="geometry">
            <mxPoint x="150" y="280" as="sourcePoint" />
            <mxPoint x="200" y="230" as="targetPoint" />
          </mxGeometry>
        </mxCell>
        <mxCell id="nCXarIT7lEDPo6yAbSy_-30" value="Registrar a placa" style="ellipse;whiteSpace=wrap;html=1;" vertex="1" parent="nCXarIT7lEDPo6yAbSy_-1">
          <mxGeometry x="235" y="40" width="110" height="40" as="geometry" />
        </mxCell>
        <mxCell id="nCXarIT7lEDPo6yAbSy_-31" value="Abrir a Cancela" style="ellipse;whiteSpace=wrap;html=1;" vertex="1" parent="nCXarIT7lEDPo6yAbSy_-1">
          <mxGeometry x="74" y="90" width="116" height="30" as="geometry" />
        </mxCell>
        <mxCell id="nCXarIT7lEDPo6yAbSy_-35" value="Efetuar o pagamento" style="ellipse;whiteSpace=wrap;html=1;" vertex="1" parent="nCXarIT7lEDPo6yAbSy_-1">
          <mxGeometry x="50" y="180" width="110" height="40" as="geometry" />
        </mxCell>
        <mxCell id="nCXarIT7lEDPo6yAbSy_-37" value="Include" style="html=1;verticalAlign=bottom;endArrow=open;dashed=1;endSize=8;curved=0;rounded=0;entryX=0.5;entryY=0;entryDx=0;entryDy=0;" edge="1" parent="nCXarIT7lEDPo6yAbSy_-1" source="nCXarIT7lEDPo6yAbSy_-31" target="nCXarIT7lEDPo6yAbSy_-35">
          <mxGeometry relative="1" as="geometry">
            <mxPoint x="290" y="290" as="sourcePoint" />
            <mxPoint x="210" y="290" as="targetPoint" />
          </mxGeometry>
        </mxCell>
        <mxCell id="nCXarIT7lEDPo6yAbSy_-2" value="Motorista" style="shape=umlActor;verticalLabelPosition=bottom;verticalAlign=top;html=1;outlineConnect=0;" vertex="1" parent="1">
          <mxGeometry x="80" y="210" width="30" height="60" as="geometry" />
        </mxCell>
        <mxCell id="nCXarIT7lEDPo6yAbSy_-3" value="Sensor estacionamento&lt;div&gt;&lt;br&gt;&lt;/div&gt;" style="shape=umlActor;verticalLabelPosition=bottom;verticalAlign=top;html=1;outlineConnect=0;" vertex="1" parent="1">
          <mxGeometry x="720" y="80" width="30" height="60" as="geometry" />
        </mxCell>
        <mxCell id="nCXarIT7lEDPo6yAbSy_-23" value="" style="endArrow=none;html=1;rounded=0;entryX=1;entryY=0.5;entryDx=0;entryDy=0;" edge="1" parent="1" source="nCXarIT7lEDPo6yAbSy_-29" target="nCXarIT7lEDPo6yAbSy_-5">
          <mxGeometry width="50" height="50" relative="1" as="geometry">
            <mxPoint x="710" y="100" as="sourcePoint" />
            <mxPoint x="440" y="260" as="targetPoint" />
          </mxGeometry>
        </mxCell>
        <mxCell id="nCXarIT7lEDPo6yAbSy_-24" value="" style="endArrow=none;html=1;rounded=0;exitX=0;exitY=0;exitDx=0;exitDy=0;" edge="1" parent="1" source="nCXarIT7lEDPo6yAbSy_-4" target="nCXarIT7lEDPo6yAbSy_-2">
          <mxGeometry width="50" height="50" relative="1" as="geometry">
            <mxPoint x="390" y="310" as="sourcePoint" />
            <mxPoint x="440" y="260" as="targetPoint" />
          </mxGeometry>
        </mxCell>
        <mxCell id="nCXarIT7lEDPo6yAbSy_-26" value="" style="endArrow=none;html=1;rounded=0;exitX=1;exitY=0.5;exitDx=0;exitDy=0;" edge="1" parent="1" source="nCXarIT7lEDPo6yAbSy_-30" target="nCXarIT7lEDPo6yAbSy_-3">
          <mxGeometry width="50" height="50" relative="1" as="geometry">
            <mxPoint x="390" y="310" as="sourcePoint" />
            <mxPoint x="440" y="260" as="targetPoint" />
          </mxGeometry>
        </mxCell>
        <mxCell id="nCXarIT7lEDPo6yAbSy_-27" value="" style="endArrow=none;html=1;rounded=0;exitX=1;exitY=0.5;exitDx=0;exitDy=0;" edge="1" parent="1" source="nCXarIT7lEDPo6yAbSy_-14" target="nCXarIT7lEDPo6yAbSy_-29">
          <mxGeometry width="50" height="50" relative="1" as="geometry">
            <mxPoint x="390" y="310" as="sourcePoint" />
            <mxPoint x="440" y="260" as="targetPoint" />
          </mxGeometry>
        </mxCell>
        <mxCell id="nCXarIT7lEDPo6yAbSy_-28" value="" style="endArrow=none;html=1;rounded=0;exitX=1;exitY=0;exitDx=0;exitDy=0;" edge="1" parent="1" source="nCXarIT7lEDPo6yAbSy_-8" target="nCXarIT7lEDPo6yAbSy_-29">
          <mxGeometry width="50" height="50" relative="1" as="geometry">
            <mxPoint x="390" y="310" as="sourcePoint" />
            <mxPoint x="440" y="260" as="targetPoint" />
          </mxGeometry>
        </mxCell>
        <mxCell id="nCXarIT7lEDPo6yAbSy_-29" value="Sensor das Vagas" style="shape=umlActor;verticalLabelPosition=bottom;verticalAlign=top;html=1;outlineConnect=0;" vertex="1" parent="1">
          <mxGeometry x="720" y="260" width="30" height="60" as="geometry" />
        </mxCell>
        <mxCell id="nCXarIT7lEDPo6yAbSy_-32" value="" style="endArrow=none;html=1;rounded=0;exitX=1;exitY=0.5;exitDx=0;exitDy=0;" edge="1" parent="1" source="nCXarIT7lEDPo6yAbSy_-5" target="nCXarIT7lEDPo6yAbSy_-3">
          <mxGeometry width="50" height="50" relative="1" as="geometry">
            <mxPoint x="390" y="310" as="sourcePoint" />
            <mxPoint x="440" y="260" as="targetPoint" />
          </mxGeometry>
        </mxCell>
        <mxCell id="nCXarIT7lEDPo6yAbSy_-33" value="" style="endArrow=none;html=1;rounded=0;exitX=1;exitY=0.5;exitDx=0;exitDy=0;" edge="1" parent="1" source="nCXarIT7lEDPo6yAbSy_-31" target="nCXarIT7lEDPo6yAbSy_-3">
          <mxGeometry width="50" height="50" relative="1" as="geometry">
            <mxPoint x="390" y="310" as="sourcePoint" />
            <mxPoint x="440" y="260" as="targetPoint" />
          </mxGeometry>
        </mxCell>
        <mxCell id="nCXarIT7lEDPo6yAbSy_-34" value="" style="endArrow=none;html=1;rounded=0;entryX=1;entryY=0.5;entryDx=0;entryDy=0;" edge="1" parent="1" source="nCXarIT7lEDPo6yAbSy_-29" target="nCXarIT7lEDPo6yAbSy_-18">
          <mxGeometry width="50" height="50" relative="1" as="geometry">
            <mxPoint x="390" y="310" as="sourcePoint" />
            <mxPoint x="440" y="260" as="targetPoint" />
          </mxGeometry>
        </mxCell>
        <mxCell id="nCXarIT7lEDPo6yAbSy_-36" value="" style="endArrow=none;html=1;rounded=0;entryX=0;entryY=0.5;entryDx=0;entryDy=0;" edge="1" parent="1" source="nCXarIT7lEDPo6yAbSy_-2" target="nCXarIT7lEDPo6yAbSy_-35">
          <mxGeometry width="50" height="50" relative="1" as="geometry">
            <mxPoint x="390" y="310" as="sourcePoint" />
            <mxPoint x="440" y="260" as="targetPoint" />
          </mxGeometry>
        </mxCell>
      </root>
    </mxGraphModel>
  </diagram>
</mxfile>
